<svg width="98" height="80" viewBox="0 0 138 120" fill="none" xmlns="http://www.w3.org/2000/svg">
<path d="M45.1852 50.9019C45.848 51.7197 47.1064 51.9386 48.0616 51.4022C48.9873 50.8058 49.2314 49.6657 48.6197 48.8047C45.0618 43.932 37.7716 42.566 32.3354 45.7527C32.2979 45.7767 32.2576 45.7984 32.22 45.8224C31.4285 46.6137 31.5009 47.8306 32.3837 48.5401C32.9686 49.0115 33.7977 49.1583 34.5383 48.9202C38.0694 46.8277 42.824 47.6984 45.1557 50.8635C45.1664 50.8755 45.1745 50.8899 45.1852 50.9019ZM36.1912 78.1852C32.0456 77.4179 29.3785 73.7839 30.2345 70.0704C30.2398 70.056 30.2425 70.0416 30.2452 70.0272C30.0923 68.9737 29.0136 68.2306 27.8384 68.3677C27.1247 68.4518 26.5048 68.8511 26.1882 69.4307C24.8574 75.1307 28.9331 80.7177 35.2923 81.9106C35.3406 81.9203 35.3916 81.9275 35.4399 81.9371H35.8477C37.0149 81.7519 37.7957 80.7538 37.5891 79.7076C37.4576 79.039 36.9424 78.4834 36.2341 78.2429L36.1912 78.1852ZM47.6537 70.2003C47.7852 69.1445 46.9373 68.1921 45.7594 68.0743C44.5788 67.9564 43.5189 68.7188 43.3875 69.7746C43.3445 70.1089 43.4036 70.4481 43.5538 70.7583C44.3158 75.9845 49.2663 79.9024 55.1452 79.9361C55.7194 79.9433 56.2936 79.9096 56.8624 79.8399C57.9813 79.6643 58.7541 78.736 58.6226 77.7234C58.4267 76.7205 57.391 76.0278 56.2614 76.1457C52.0542 76.6339 48.1984 73.9715 47.6537 70.2003Z" fill="url(#paint0_linear_78_437)"/>
<path d="M129.974 73.1442C126.456 73.1514 123.373 75.2607 122.439 78.3007H115.248L104.344 67.0834C103.944 66.6842 103.375 66.4557 102.777 66.4485H73.7341V53.2301H102.777C103.375 53.2229 103.944 52.9945 104.344 52.5952L115.248 41.378H122.439C123.59 45.1275 127.913 47.3329 132.096 46.3011C136.282 45.2718 138.74 41.3948 137.591 37.6453C136.44 33.8957 132.118 31.6903 127.932 32.7221C125.262 33.3787 123.175 35.2498 122.439 37.6453H114.304C113.706 37.6525 113.137 37.8809 112.737 38.2802L101.832 49.4975H73.7341V42.4939H100.952C101.559 42.4987 102.133 42.2582 102.519 41.8397L110.118 33.8356C110.443 33.4989 110.62 33.0684 110.612 32.6234V25.1773C114.76 24.1455 117.188 20.2974 116.037 16.5815C114.889 12.8633 110.596 10.6867 106.448 11.7161C102.299 12.7478 99.871 16.596 101.022 20.3142C101.752 22.676 103.813 24.5231 106.448 25.1773V31.9885L100.008 38.7612H73.7341V29.8336H83.2433C83.9409 29.836 84.5983 29.5353 85.0035 29.0254L87.6652 25.1773C88.3628 25.3673 89.0846 25.4707 89.8118 25.4852C94.1505 25.5068 97.6869 22.3705 97.7111 18.4815C97.7352 14.5925 94.2363 11.4226 89.8976 11.401C85.5669 11.3793 82.0332 14.5036 81.9983 18.3854C82.0064 20.1579 82.7764 21.8583 84.1449 23.1378L81.9983 26.1009H73.7341V11.6896C73.7555 11.5549 73.7555 11.4202 73.7341 11.2855C71.1904 4.74373 64.2892 0.373705 56.5617 0.414591C49.4378 0.462693 42.9928 4.21702 40.0547 10.0349C30.5133 7.36768 20.3681 12.137 17.3925 20.6894C16.8505 22.2479 16.5741 23.8714 16.5714 25.5044C16.5607 26.9956 16.7914 28.4795 17.2583 29.9105C7.69542 32.6571 2.43101 41.8325 5.49521 50.4042C5.84939 51.3975 6.3109 52.3547 6.869 53.2687C-0.329994 58.2833 -1.62864 67.5789 3.96581 74.0317C5.7394 76.076 8.07912 77.6682 10.7543 78.6471C5.40398 86.2375 7.92887 96.2787 16.397 101.077C18.7099 102.385 21.3233 103.21 24.0414 103.487C24.3956 111.652 32.0695 118.013 41.1789 117.696C43.5697 117.612 45.9094 117.063 48.0398 116.089C50.9404 118.119 54.5144 119.216 58.1931 119.206C65.0325 119.177 71.1556 115.399 73.6268 109.682C73.6456 109.536 73.6456 109.386 73.6268 109.24C73.6375 109.163 73.6375 109.086 73.6268 109.009V93.6163H81.9983L84.1449 96.5793C82.7764 97.8588 82.0064 99.5592 81.9983 101.332C81.9876 105.221 85.4945 108.383 89.8332 108.393C94.1719 108.403 97.7004 105.259 97.7111 101.37C97.7218 97.4813 94.2149 94.3186 89.8762 94.3089C89.8681 94.3089 89.8627 94.3089 89.8547 94.3089C89.1276 94.3234 88.4058 94.4268 87.7081 94.6168L85.0035 90.5955C84.6171 90.0568 83.957 89.7249 83.2433 89.7105H73.7341V80.9752H99.9864L106.426 87.7479V94.4436C102.219 95.4754 99.7396 99.3668 100.888 103.14C102.039 106.912 106.383 109.134 110.59 108.105C114.798 107.073 117.277 103.179 116.128 99.4077C115.391 96.9906 113.287 95.1026 110.59 94.4436V86.9398C110.598 86.4949 110.421 86.0643 110.097 85.7276L102.498 77.762C102.112 77.3435 101.537 77.103 100.931 77.1078H73.7341V70.1812H101.832L112.737 81.3985C113.137 81.7977 113.706 82.0262 114.304 82.0334H122.439C123.59 85.7733 127.902 87.9692 132.075 86.9374C136.247 85.9056 138.697 82.0406 137.546 78.3007C136.607 75.2487 133.505 73.137 129.974 73.1442ZM129.974 36.1445C132.013 36.1445 133.666 37.626 133.666 39.4539C133.666 41.2817 132.013 42.7633 129.974 42.7633C127.935 42.7633 126.282 41.2817 126.282 39.4539C126.282 37.626 127.935 36.1445 129.974 36.1445ZM104.859 18.3854C104.848 16.5575 106.49 15.0663 108.53 15.0567C110.569 15.0471 112.232 16.519 112.243 18.3469C112.254 20.1748 110.612 21.6659 108.573 21.6755C108.559 21.6755 108.543 21.6755 108.53 21.6755C106.507 21.6659 104.87 20.1988 104.859 18.3854ZM89.8332 15.076C91.8724 15.076 93.5253 16.5575 93.5253 18.3854C93.5253 20.2132 91.8724 21.6947 89.8332 21.6947C87.794 21.6947 86.1411 20.2132 86.1411 18.3854C86.1411 16.5575 87.794 15.076 89.8332 15.076C89.8413 15.076 89.8467 15.076 89.8547 15.076H89.8332ZM69.5483 27.9672V36.7217C65.8079 35.0598 61.3619 35.3171 57.8925 37.3951C56.9668 37.9916 56.7227 39.1316 57.3344 39.9926C57.9972 40.8104 59.2556 41.0292 60.2108 40.4928C63.1248 38.7227 67.0207 39.0282 69.5483 41.224V58.9639C65.8106 57.2779 61.3485 57.5425 57.8925 59.6566C57.093 60.443 57.1574 61.66 58.0321 62.3743C58.6277 62.8601 59.4783 63.0068 60.2323 62.7543C63.1248 60.9697 67.0207 61.2584 69.5483 63.447V108.566C66.9966 114.221 59.8137 116.95 53.5055 114.663C52.8616 114.43 52.2391 114.146 51.6461 113.819C55.5689 110.685 56.6583 105.582 54.3078 101.37C54.0717 100.329 52.9394 99.6555 51.7775 99.8671C50.6157 100.076 49.8644 101.091 50.1006 102.135C50.1757 102.465 50.3447 102.772 50.5942 103.025C52.4296 106.431 50.8384 110.526 47.039 112.171C47.0149 112.184 46.9907 112.193 46.9666 112.203C46.8029 112.297 46.6527 112.405 46.5158 112.53C40.6101 115.539 33.1025 113.687 29.7459 108.393C28.7397 106.808 28.187 105.021 28.1413 103.198C31.7905 102.255 38.6809 99.8888 39.6898 95.2325C39.8776 94.2248 39.1505 93.2603 38.0369 93.0391C36.9529 92.8875 35.9172 93.4936 35.6328 94.4436C35.0103 97.2143 28.5277 99.273 25.9518 99.7733C18.2457 99.6795 12.0851 94.0035 12.1924 87.0961C12.2381 84.0633 13.5126 81.1508 15.7772 78.8972C16.3085 78.3777 16.4829 77.6394 16.228 76.9732C15.9731 76.343 15.372 75.8764 14.6395 75.7417C7.95032 74.5656 3.59016 68.7526 4.90224 62.7567C5.5784 59.6734 7.68201 56.9941 10.6899 55.3851C14.1834 53.2807 18.9165 54.1104 21.2643 57.2419C21.2831 57.2635 21.2992 57.2876 21.3153 57.3092C21.7124 57.8095 22.3483 58.1077 23.0325 58.1173C23.4538 58.1149 23.8643 58.0019 24.2131 57.7902C25.1308 57.189 25.3669 56.0489 24.7498 55.1927C21.5944 50.9381 15.4928 49.3171 10.2606 51.3446C6.63557 45.2862 9.17656 37.739 15.9355 34.4898C16.8585 34.0472 17.8352 33.6985 18.8468 33.4508C20.5103 35.9087 23.4753 37.4167 26.6817 37.4336C27.7576 37.4384 28.8282 37.2676 29.8371 36.9333C31.0177 36.8323 31.8844 35.8943 31.7717 34.8361C31.6617 33.7778 30.6125 33.0034 29.4346 33.102C29.0697 33.1333 28.7209 33.2464 28.4204 33.4316C25.7908 34.2421 22.9225 33.0083 21.9807 30.6609C21.9888 30.6032 21.9888 30.5455 21.9807 30.4877C18.9353 24.1552 22.1927 16.8076 29.2575 14.0779C32.861 12.6853 36.9529 12.719 40.5269 14.1716H40.9563C46.9022 15.2106 48.6623 20.0978 47.7393 24.4654C47.5649 25.4683 48.2894 26.4183 49.3922 26.6396H49.7786C50.8089 26.6613 51.7105 26.0215 51.9251 25.1196C53.2775 18.6162 50.165 13.1519 44.2405 11.0931C46.5856 6.80968 51.4314 4.08234 56.7549 4.05107C62.5667 4.04145 67.7694 7.28347 69.7844 12.1706L69.5483 27.9672ZM89.8332 97.9455C91.8724 97.9455 93.5253 99.427 93.5253 101.255C93.5253 103.083 91.8724 104.564 89.8332 104.564C87.794 104.564 86.1411 103.083 86.1411 101.255C86.1411 101.248 86.1411 101.243 86.1411 101.236C86.1519 99.4077 87.8155 97.9358 89.8547 97.9455H89.8332ZM112.2 101.236C112.211 103.063 110.569 104.555 108.53 104.564C106.49 104.574 104.827 103.102 104.816 101.274C104.805 99.4462 106.448 97.9551 108.487 97.9455C108.495 97.9455 108.5 97.9455 108.508 97.9455C110.547 97.9358 112.211 99.4077 112.222 101.236H112.2ZM129.952 83.4764C127.913 83.4861 126.249 82.0142 126.239 80.1863C126.228 78.3584 127.87 76.8673 129.909 76.8577C131.949 76.848 133.612 78.32 133.623 80.1479C133.623 80.1551 133.623 80.1598 133.623 80.1671C133.623 81.9805 131.997 83.4548 129.974 83.4764H129.952Z" fill="url(#paint1_linear_78_437)"/>
<defs>
<linearGradient id="paint0_linear_78_437" x1="42.2868" y1="44.032" x2="42.2868" y2="81.9371" gradientUnits="userSpaceOnUse">
<stop stop-color="#A2A9E2"/>
<stop offset="1" stop-color="#C533FF"/>
</linearGradient>
<linearGradient id="paint1_linear_78_437" x1="69.1824" y1="0.414307" x2="69.1824" y2="119.206" gradientUnits="userSpaceOnUse">
<stop stop-color="#A2A9E2"/>
<stop offset="1" stop-color="#C533FF"/>
</linearGradient>
</defs>
</svg>
