<svg version="1.1" id="Layer_1" xmlns="http://www.w3.org/2000/svg" xmlns:xlink="http://www.w3.org/1999/xlink" x="0px" y="0px"
	 width="100%" viewBox="0 200 1024 250" enable-background="new 0 0 1024 592" xml:space="preserve">
<path fill="#000000" opacity="1.000000" stroke="none" 
	d="
M834.274475,326.737671 
	C828.311462,321.315186 821.202087,318.861908 814.188293,316.212036 
	C806.257874,313.215851 797.985901,311.089355 790.612549,306.679688 
	C781.419312,301.181671 776.832031,293.532532 778.633118,282.555847 
	C780.328003,272.226257 786.943604,266.503693 796.399597,263.770660 
	C811.750854,259.333771 826.065796,261.939514 839.169006,271.058929 
	C840.516174,271.996429 841.773315,273.167328 842.782776,274.456573 
	C843.780701,275.731201 843.828064,277.329712 842.545166,278.539825 
	C841.458191,279.565216 840.064575,279.551697 838.843079,278.766937 
	C837.587158,277.960083 836.488098,276.913483 835.262268,276.054749 
	C823.054077,267.502472 809.827148,265.907898 795.838928,270.625458 
	C788.820190,272.992523 785.115295,278.226776 784.384705,285.550995 
	C783.661194,292.805481 787.454651,297.513397 793.273804,301.027588 
	C799.895325,305.026245 807.317688,307.080688 814.490112,309.741028 
	C822.145508,312.580475 829.870056,315.301147 836.377747,320.459351 
	C851.988464,332.832977 849.629456,353.820587 831.689575,362.397736 
	C815.195679,370.283569 790.134949,366.204742 776.958984,353.487823 
	C775.481201,352.061523 773.816589,350.480591 775.499023,348.381165 
	C777.374146,346.041260 779.386658,347.423462 781.145203,348.816437 
	C789.152710,355.159302 797.981262,359.398743 808.350586,360.222443 
	C815.137939,360.761658 821.648071,359.957275 827.862610,357.261139 
	C841.674561,351.268951 844.488159,338.346130 834.274475,326.737671 
z"/>
<path fill="#000000" opacity="1.000000" stroke="none" 
	d="
M253.115280,296.809662 
	C249.598007,288.496887 246.249237,280.528381 242.422012,271.421356 
	C240.220108,276.397736 238.392807,280.358185 236.702103,284.376099 
	C226.043869,309.704865 215.415939,335.046417 204.778275,360.383820 
	C204.584869,360.844482 204.437668,361.330353 204.196152,361.763916 
	C203.046143,363.828491 202.555634,367.276947 199.166702,365.950867 
	C195.742462,364.610962 197.527496,361.779144 198.444977,359.558960 
	C202.961166,348.630646 207.538605,337.727570 212.110855,326.822479 
	C220.676361,306.393250 229.235565,285.961304 237.852356,265.553711 
	C238.721329,263.495667 239.125946,260.709656 242.062958,260.531433 
	C245.160400,260.343414 245.580399,263.165955 246.448212,265.221405 
	C259.661957,296.519318 272.839478,327.832581 286.004211,359.151154 
	C286.516357,360.369598 286.933350,361.654999 287.180420,362.950073 
	C287.410522,364.155945 287.049316,365.299316 285.817902,365.888855 
	C284.459686,366.539124 283.105682,366.367157 282.234222,365.150391 
	C281.373596,363.948822 280.710236,362.575897 280.134308,361.205048 
	C271.167480,339.861694 262.228882,318.506409 253.115280,296.809662 
z"/>
<path fill="#000000" opacity="1.000000" stroke="none" 
	d="
M350.400452,364.695984 
	C336.474274,332.384857 322.761627,300.401520 309.056213,268.415100 
	C308.130005,266.253479 306.800293,263.700989 309.800659,262.378815 
	C312.884460,261.019897 313.805359,263.924561 314.689758,265.982849 
	C326.190857,292.750153 337.628296,319.544800 349.097168,346.325958 
	C350.199158,348.899200 351.403687,351.428558 352.852356,354.621185 
	C355.451385,351.384338 356.420807,348.040588 357.740295,344.953796 
	C368.473602,319.844147 379.106110,294.691376 389.789764,269.560455 
	C390.635162,267.571838 391.543610,265.598236 392.591583,263.711426 
	C393.389404,262.275085 394.740692,261.483154 396.372162,262.287109 
	C397.890961,263.035492 398.457062,264.435455 397.912720,266.079834 
	C397.390259,267.658112 396.761993,269.205414 396.108459,270.735718 
	C383.160522,301.053925 370.214935,331.373169 357.224792,361.673309 
	C356.007874,364.511871 355.006226,368.237000 350.400452,364.695984 
z"/>
<path fill="#000000" opacity="1.000000" stroke="none" 
	d="
M595.202271,301.807861 
	C590.130737,314.148712 580.788513,320.123505 568.231384,321.638306 
	C567.859375,323.891937 569.476624,325.121307 570.456116,326.530212 
	C577.777954,337.062073 585.186523,347.533661 592.559814,358.029816 
	C593.325623,359.119965 594.106934,360.208557 594.760315,361.366028 
	C595.648254,362.939240 595.953552,364.644287 594.216187,365.791687 
	C592.563110,366.883453 590.940735,366.264099 589.820679,364.789673 
	C587.705811,362.005768 585.696106,359.140778 583.680054,356.283173 
	C576.669556,346.346283 569.553223,336.480621 562.738953,326.410675 
	C560.263062,322.751770 557.538147,320.567993 552.933105,321.294403 
	C551.308044,321.550751 549.607300,321.339752 547.941345,321.321533 
	C545.856140,321.298706 543.607910,321.187103 543.688110,318.378265 
	C543.768921,315.552643 546.141418,315.687531 548.144775,315.616150 
	C555.622498,315.349640 563.144470,315.527374 570.569519,314.760620 
	C582.875000,313.489777 591.376648,302.592743 590.673401,289.776428 
	C590.031921,278.085785 580.326172,268.620331 568.415466,268.265289 
	C562.255859,268.081604 556.086060,268.263306 549.923340,268.148926 
	C547.384766,268.101837 543.858521,268.809204 543.676941,264.993958 
	C543.479736,260.849121 547.142700,261.800690 549.608337,261.744354 
	C555.103760,261.618866 560.604065,261.715912 566.102234,261.698273 
	C587.954407,261.628082 602.312744,282.509430 595.202271,301.807861 
z"/>
<path fill="#000000" opacity="1.000000" stroke="none" 
	d="
M436.367767,319.669556 
	C436.354279,329.429260 436.359528,338.761078 436.326630,348.092712 
	C436.318939,350.277252 436.396332,352.927979 433.469330,353.065308 
	C430.123199,353.222290 430.131989,350.280579 430.124786,348.007568 
	C430.053589,325.511810 430.041840,303.015717 430.098755,280.519897 
	C430.104431,278.282043 429.948883,275.169708 433.133179,275.130585 
	C436.721222,275.086487 436.319885,278.307800 436.337067,280.752380 
	C436.390930,288.417419 436.601562,296.092987 436.278717,303.744568 
	C436.087952,308.265564 437.386932,309.862488 442.123322,309.768066 
	C456.615143,309.479248 471.116333,309.655365 485.613861,309.662994 
	C487.111603,309.663788 488.617065,309.668335 490.104767,309.814972 
	C491.556793,309.958099 492.663544,310.777161 492.880280,312.265015 
	C493.141693,314.059448 491.999969,315.166656 490.428955,315.503143 
	C488.659485,315.882111 486.807587,316.015869 484.991547,316.015686 
	C470.327576,316.014374 455.663483,315.976501 440.999756,315.896088 
	C438.549774,315.882660 436.099121,315.606659 436.367767,319.669556 
z"/>
<path fill="#000000" opacity="1.000000" stroke="none" 
	d="
M736.158569,338.000000 
	C736.155823,345.828552 736.203430,353.157715 736.121521,360.485382 
	C736.094238,362.926025 736.356750,366.089966 732.783081,366.071716 
	C729.530334,366.055115 729.703857,363.106140 729.701721,360.798157 
	C729.673279,329.651733 729.676819,298.505280 729.686218,267.358826 
	C729.686951,264.978943 729.714111,262.061279 732.902344,262.230072 
	C736.261475,262.407928 736.102661,265.594940 736.108887,268.045166 
	C736.164001,289.864197 736.150696,311.683441 736.157532,333.502594 
	C736.157959,334.835052 736.158142,336.167542 736.158569,338.000000 
z"/>
<path fill="#000000" opacity="1.000000" stroke="none" 
	d="
M536.152100,264.625183 
	C536.274963,297.051605 536.313782,329.044037 536.327637,361.036438 
	C536.328613,363.392151 536.391052,366.179047 533.049805,366.097626 
	C530.057983,366.024658 530.072998,363.337585 530.070435,361.209778 
	C530.032898,329.883179 530.040955,298.556458 530.076111,267.229828 
	C530.078308,265.225311 530.237122,263.063721 532.556335,262.232330 
	C534.309265,261.603943 535.361511,262.693695 536.152100,264.625183 
z"/>
<path fill="#000000" opacity="1.000000" stroke="none" 
	d="
M656.811035,357.860779 
	C656.809875,332.744293 656.809692,308.111115 656.812256,283.477966 
	C656.812378,282.146606 656.801453,280.813873 656.855408,279.484192 
	C656.940918,277.376862 657.360962,275.174927 659.899536,275.087189 
	C662.778992,274.987732 663.270996,277.291534 663.276917,279.617249 
	C663.300110,288.771332 663.297058,297.925476 663.299194,307.079620 
	C663.303284,324.222961 663.309814,341.366333 663.297729,358.509674 
	C663.296570,360.170319 663.291077,361.846802 663.071594,363.487061 
	C662.849854,365.144653 661.835876,366.196350 660.036987,366.162537 
	C658.488281,366.133423 657.461243,365.175171 657.206665,363.798889 
	C656.877075,362.017303 656.926331,360.165619 656.811035,357.860779 
z"/>
<path fill="#000000" opacity="1.000000" stroke="none" 
	d="
M655.000000,261.695984 
	C667.969299,261.696198 680.438660,261.691254 692.907959,261.704651 
	C694.401489,261.706238 695.905212,261.717468 697.385681,261.886322 
	C699.065979,262.077972 700.128540,263.051239 700.166077,264.830200 
	C700.203979,266.625580 699.092468,267.638855 697.486633,267.902985 
	C695.860413,268.170471 694.179871,268.177673 692.523071,268.178741 
	C670.909546,268.192719 649.296082,268.185455 627.682556,268.182678 
	C626.851318,268.182587 626.017639,268.212677 625.189209,268.162048 
	C622.857605,268.019592 620.042053,268.117340 619.963684,264.926514 
	C619.881287,261.571594 622.770325,261.745117 625.072571,261.732452 
	C634.881470,261.678467 644.690796,261.701477 655.000000,261.695984 
z"/>
<path fill="#000000" opacity="1.000000" stroke="none" 
	d="
M451.000854,261.693115 
	C463.806213,261.695312 476.111755,261.676208 488.417145,261.718933 
	C490.886108,261.727478 494.051422,261.505768 493.916168,265.070526 
	C493.801819,268.084534 490.933899,268.175842 488.551392,268.177551 
	C471.090881,268.190216 453.630371,268.198608 436.169952,268.157227 
	C433.695648,268.151337 430.593719,268.320435 430.703613,264.727814 
	C430.802612,261.492096 433.727936,261.748779 436.033936,261.722351 
	C440.855774,261.667023 445.678619,261.697998 451.000854,261.693115 
z"/>
<path fill="#000000" opacity="1.000000" stroke="none" 
	d="
M442.042725,366.435242 
	C438.887085,366.404877 436.222595,366.413635 433.560913,366.331390 
	C431.837311,366.278107 430.671173,365.424438 430.678406,363.586365 
	C430.685547,361.765778 431.880554,360.931396 433.556641,360.766815 
	C434.713043,360.653229 435.883850,360.658661 437.048218,360.658020 
	C453.864532,360.648743 470.680817,360.643005 487.497131,360.652649 
	C488.825043,360.653381 490.166504,360.678040 491.477142,360.864349 
	C492.967041,361.076141 493.925568,362.106384 493.958252,363.564056 
	C493.992188,365.077850 492.949341,366.024658 491.470886,366.207642 
	C489.991028,366.390747 488.484833,366.413574 486.990082,366.415375 
	C472.171753,366.433014 457.353424,366.431702 442.042725,366.435242 
z"/>
<path fill="#000000" opacity="1.000000" stroke="none" 
	d="
M254.897430,338.401978 
	C245.430542,338.401825 236.450699,338.424713 227.471161,338.383728 
	C225.195145,338.373322 222.115143,338.742767 222.247223,335.413300 
	C222.376602,332.151276 225.510925,332.705750 227.736908,332.692383 
	C237.381393,332.634430 247.026794,332.635468 256.671112,332.709534 
	C258.857391,332.726318 261.955109,332.009583 262.070587,335.444275 
	C262.189117,338.969696 259.076904,338.192169 256.880646,338.390533 
	C256.385681,338.435211 255.883469,338.399872 254.897430,338.401978 
z"/>
</svg>
