<svg width="99" height="71" viewBox="0 0 139 111" fill="none" xmlns="http://www.w3.org/2000/svg">
<path d="M68.3304 1.29205C64.6451 3.09392 63.3118 5.75361 63.3118 11.4166V16.393H41.7467H20.1817V18.5385V20.6834H42.1388C60.3317 20.6834 64.5663 20.9408 66.4483 21.9705C67.7816 22.7427 68.8009 23.9441 68.8797 24.802C68.8797 25.5742 69.0361 27.2043 69.1932 28.4057C69.6637 32.2669 68.8009 34.4117 66.7624 34.4117C65.1156 34.4117 64.8804 33.9832 64.8804 31.4091C64.8804 28.7487 64.6451 28.4057 62.9195 28.4057C61.2727 28.4057 60.9592 28.8349 60.9592 31.1516C60.9592 33.4683 60.4887 34.2406 58.3714 35.2702C56.9599 36.0424 55.3915 37.7581 54.7642 39.3025C53.6663 42.0485 53.4311 42.134 49.0396 42.134C44.7266 42.134 44.4914 42.2203 44.4914 44.2796C44.4914 46.3389 44.7266 46.4244 49.1965 46.4244C53.6663 46.4244 53.9016 46.51 53.9016 48.5693C53.9016 50.6286 53.7447 50.7148 48.5691 50.7148H43.1582L40.0215 46.5963C37.2768 43.0781 36.9632 42.134 37.2768 38.9595C37.669 34.498 35.5517 31.8376 31.7092 31.8376C24.0241 31.8376 23.7889 43.8503 31.4739 44.88C32.8854 45.0518 34.4538 46.167 35.7085 47.8833L37.669 50.7148H32.1012C26.7688 50.7148 26.612 50.6286 24.4163 47.6259C19.0054 40.161 19.7111 40.6758 17.9075 42.4777C16.3391 44.0222 16.3391 44.1077 20.4169 49.4278C23.632 53.7175 25.0436 54.919 27.0825 55.1764L29.5919 55.4338L27.6314 58.6083C25.5925 61.9546 22.8479 62.8987 22.0637 60.6676C21.8284 59.9816 20.5737 58.952 19.319 58.4371C15.3197 56.6353 10.7714 60.0672 10.7714 64.958C10.7714 66.9317 15.0844 71.3075 16.9665 71.3075C17.8291 71.3075 19.7896 70.192 21.2011 68.7334C22.7695 67.2747 24.8083 66.1595 25.9846 66.1595C27.6314 66.1595 28.6509 65.1298 31.3171 60.582L34.689 55.0046H44.3345H53.9016V57.1501C53.9016 59.2094 53.8232 59.2094 45.9029 59.4668L37.8258 59.7242L34.3754 65.4728L30.9249 71.3075H27.1609C23.5536 71.3075 23.3184 71.479 23.3184 73.4525C23.3184 75.5118 23.4752 75.5976 28.3371 75.5976H33.356L36.6495 70.0204L39.9431 64.4432H46.9223H53.9016L54.9995 67.4463C55.862 69.6772 56.803 70.621 58.6067 70.9642C60.6458 71.479 60.9592 71.9081 60.9592 74.3964C60.9592 76.8846 61.1945 77.3137 62.8413 77.3137C64.4881 77.3137 64.8015 76.7989 65.0368 74.4822C65.1938 72.1655 65.5861 71.7364 67.2329 71.7364C69.115 71.7364 69.1932 71.9081 68.9579 77.3137C68.7227 85.036 67.6246 85.894 58.6849 85.894H51.9411L42.1388 93.7022L32.3365 101.424L32.1012 93.7022L31.866 85.894H19.7111C7.79152 85.894 7.55627 85.8082 5.59581 83.7489L3.63535 81.6039L3.8706 52.8597C4.10586 19.9112 3.79219 21.5412 11.0851 20.8552C15.0844 20.5116 15.4766 20.2542 15.4766 18.4523C15.4766 16.5648 15.1628 16.393 11.9477 16.393C7.71313 16.393 3.94902 18.0237 1.7533 20.6834C0.263355 22.4853 0.184937 23.7723 0.184937 52.8597C0.184937 85.7224 0.263355 86.4947 4.65479 88.9829C6.14474 89.841 9.75197 90.1842 17.3586 90.1842H27.9451L28.1803 100.137L28.4156 110.091L41.0409 100.137L53.6663 90.1842H60.4887C67.0759 90.1842 67.3111 90.0984 70.1342 87.3527C72.8002 84.607 72.9573 84.178 73.3495 77.9143C73.663 71.6507 73.8201 71.3075 75.5451 71.3075C77.1919 71.3075 77.4271 71.7364 77.4271 74.3105C77.4271 76.9705 77.6624 77.3137 79.3874 77.3137C81.113 77.3137 81.3482 76.9705 81.3482 74.4822C81.3482 72.0797 81.6617 71.5649 83.936 70.8784C85.5828 70.2778 86.8373 69.1623 87.6213 67.2747C88.7194 64.7006 89.0328 64.4432 92.7969 64.4432C96.6398 64.4432 97.1886 64.7862 109.265 74.3105L121.733 84.178L121.969 74.3964L122.204 64.7006L127.223 64.1858C130.046 64.0139 133.261 63.1561 134.359 62.2983C136.79 60.582 138.594 56.206 138.594 52.0019C138.594 49.4278 138.358 48.9985 136.711 48.9985C135.143 48.9985 134.829 49.5134 134.516 52.8597C133.888 58.7801 133.183 59.295 125.184 59.295H118.283L118.048 67.4463L117.813 75.5976L107.618 67.4463C97.5808 59.4668 97.3456 59.3805 92.954 59.295C88.6411 59.295 88.4059 59.2094 88.4059 57.1501V55.0046H96.6398H104.874V52.8597V50.7148H96.6398H88.4059V48.5693V46.4244H102.521H116.637V44.2796C116.637 42.3059 116.322 42.134 113.108 42.134C109.265 42.134 109.187 42.0485 110.363 39.4744C111.069 38.1017 112.088 37.8443 116.244 37.8443C121.185 37.8443 121.342 37.7581 121.342 35.6988C121.342 33.5539 121.263 33.5539 115.303 33.5539H109.187L106.521 37.8443C104.324 41.3618 103.383 42.134 101.58 42.134H99.3059L104.952 33.1247L110.676 24.1153H114.127C116.872 24.1153 117.891 24.5446 119.146 26.2608C120.322 27.8909 121.42 28.4057 123.615 28.4057C128.399 28.4057 131.065 23.6867 128.87 19.1389C126.831 14.8486 122.439 14.2481 119.303 17.6801C117.656 19.4819 116.558 19.8256 112.872 19.8256L108.403 19.9112L101.345 30.9798C94.5225 41.7911 94.2085 42.134 91.4642 42.134C89.0328 42.134 88.4841 41.7911 88.0918 39.9892C87.4649 37.4151 84.6418 34.4117 82.7598 34.4117C81.6617 34.4117 81.3482 33.7257 81.3482 31.4091C81.3482 28.7487 81.113 28.4057 79.3874 28.4057C77.6624 28.4057 77.4271 28.7487 77.4271 31.4091C77.4271 34.0687 77.1919 34.4117 75.4669 34.4117C73.663 34.4117 73.506 34.1543 73.506 30.122C73.506 24.7164 71.938 20.426 69.2714 18.5385C67.4682 17.2515 67.2329 16.4792 67.2329 12.5319C67.2329 4.80955 65.2721 5.23878 100.874 5.23878C128.948 5.23878 132.242 5.41061 133.183 6.69765C134.045 7.72729 134.359 12.4463 134.516 26.432L134.751 44.7082H136.711H138.594V26.432C138.594 6.44025 138.358 5.32437 133.967 2.06427C131.301 0.0905762 131.301 0.0905762 101.031 0.0905762C77.2701 0.17617 70.2124 0.433578 68.3304 1.29205ZM125.106 22.2279C125.341 23.6005 124.949 24.1153 123.851 24.1153C121.969 24.1153 121.106 22.1423 122.361 20.769C123.615 19.3963 124.792 20.083 125.106 22.2279ZM33.356 38.1017C33.6696 39.8174 31.3955 41.0188 30.2192 39.7318C29.0429 38.4447 30.1408 35.9562 31.7092 36.2998C32.4933 36.471 33.1991 37.2433 33.356 38.1017ZM83.7008 40.3322C84.6418 42.3059 84.72 64.3576 83.8572 65.9876C83.3085 66.7599 80.2502 67.0173 71.0752 66.8454L58.999 66.588L58.7637 53.7175C58.6849 46.6819 58.7637 40.4184 58.9202 39.8174C59.2342 38.9595 62.2137 38.7021 71.0752 38.7021C81.897 38.7021 82.9162 38.874 83.7008 40.3322ZM18.4564 64.1858C18.7701 66.3306 16.7312 67.3605 15.4766 65.6446C14.6923 64.7006 14.6923 64.1858 15.4766 63.1561C16.8096 61.4398 18.1428 61.9547 18.4564 64.1858Z" fill="url(#paint0_linear_71_102)"/>
<path d="M64.88 52.7737C64.88 54.6611 65.2717 55.0042 67.0755 55.0042C68.9576 55.0042 69.271 54.6611 69.1928 53.0311C69.1146 51.6578 68.4871 51.0574 66.9973 50.8856C65.1935 50.6282 64.88 50.8856 64.88 52.7737Z" fill="url(#paint1_linear_71_102)"/>
<path d="M73.5059 52.8593C73.5059 54.5756 73.8982 55.0042 75.4667 55.0042C77.0347 55.0042 77.427 54.5756 77.427 52.8593C77.427 51.143 77.0347 50.7144 75.4667 50.7144C73.8982 50.7144 73.5059 51.143 73.5059 52.8593Z" fill="url(#paint2_linear_71_102)"/>
<defs>
<linearGradient id="paint0_linear_71_102" x1="69.3892" y1="110.091" x2="69.3892" y2="0.0905762" gradientUnits="userSpaceOnUse">
<stop stop-color="#A2A9E2"/>
<stop offset="1" stop-color="#C533FF"/>
</linearGradient>
<linearGradient id="paint1_linear_71_102" x1="67.0418" y1="55.0042" x2="67.0418" y2="50.8018" gradientUnits="userSpaceOnUse">
<stop stop-color="#A2A9E2"/>
<stop offset="1" stop-color="#C533FF"/>
</linearGradient>
<linearGradient id="paint2_linear_71_102" x1="75.4664" y1="55.0042" x2="75.4664" y2="50.7144" gradientUnits="userSpaceOnUse">
<stop stop-color="#A2A9E2"/>
<stop offset="1" stop-color="#C533FF"/>
</linearGradient>
</defs>
</svg>
