<svg width="79" height="77" viewBox="0 0 119 117" fill="none" xmlns="http://www.w3.org/2000/svg">
<path d="M116.773 8.13965H98.9769C97.8844 8.13965 96.9996 9.00804 96.9996 10.0802C96.9996 11.1523 97.8844 12.0207 98.9769 12.0207H114.796V39.1883H83.1582C82.0658 39.1883 81.1809 40.0567 81.1809 41.1288C81.1809 42.201 82.0658 43.0694 83.1582 43.0694H116.773C117.865 43.0694 118.75 42.201 118.75 41.1288V10.0802C118.75 9.00804 117.865 8.13965 116.773 8.13965ZM35.7023 85.7613H19.8836V58.5937H87.1129V76.0586C87.1129 77.1307 87.9978 77.9991 89.0902 77.9991C90.1827 77.9991 91.0676 77.1307 91.0676 76.0586V56.6532C91.0676 55.581 90.1827 54.7126 89.0902 54.7126H17.9063C16.8138 54.7126 15.9289 55.581 15.9289 56.6532V87.7018C15.9289 88.774 16.8138 89.6424 17.9063 89.6424H35.7023C36.7947 89.6424 37.6796 88.774 37.6796 87.7018C37.6796 86.6297 36.7947 85.7613 35.7023 85.7613Z" fill="url(#paint0_linear_71_144)"/>
<path d="M114.796 81.8802H43.6116C42.5191 81.8802 41.6342 82.7486 41.6342 83.8207V114.869C41.6342 115.942 42.5191 116.81 43.6116 116.81H63.3849C64.4774 116.81 65.3622 115.942 65.3622 114.869C65.3622 113.797 64.4774 112.929 63.3849 112.929H45.5889V85.7613H112.818V112.929H71.2942C70.2017 112.929 69.3169 113.797 69.3169 114.869C69.3169 115.942 70.2017 116.81 71.2942 116.81H114.796C115.888 116.81 116.773 115.942 116.773 114.869V83.8207C116.773 82.7486 115.888 81.8802 114.796 81.8802ZM10.0414 33.6723C9.55695 32.7651 9.1516 31.8191 8.83522 30.8439C8.57817 30.0362 7.81442 29.4856 6.94934 29.4856H2.08756C0.995086 29.4856 0.110229 30.354 0.110229 31.4261C0.110229 32.4983 0.995086 33.3666 2.08756 33.3666H5.55284C5.66407 33.6359 5.78024 33.9051 5.89888 34.1744L3.44698 36.5831C2.67335 37.3399 2.67335 38.5673 3.44698 39.3265L11.8334 47.5569C12.607 48.3161 13.8576 48.3161 14.6288 47.5569L17.0831 45.1506C17.3575 45.267 17.6319 45.381 17.9062 45.4902V48.891C17.9062 49.9631 18.7911 50.8315 19.8836 50.8315H31.7476C32.84 50.8315 33.7249 49.9631 33.7249 48.891V45.4902C33.9992 45.381 34.2736 45.267 34.548 45.1506L37.0023 47.5569C37.7735 48.3161 39.0242 48.3161 39.7978 47.5569L44.3704 43.0694H75.2489C76.3414 43.0694 77.2262 42.201 77.2262 41.1288C77.2262 40.0567 76.3414 39.1883 75.2489 39.1883H48.278C48.9454 38.429 48.9034 37.2938 48.1841 36.5831L45.7323 34.1744C45.8509 33.9051 45.9671 33.6359 46.0783 33.3666H49.5436C50.636 33.3666 51.5209 32.4983 51.5209 31.4261V19.7829C51.5209 18.7107 50.636 17.8423 49.5436 17.8423H46.0783C45.9671 17.5706 45.8509 17.3014 45.7323 17.0346L48.1841 14.6259C48.9034 13.9151 48.9454 12.7799 48.278 12.0207H91.0676C92.16 12.0207 93.0449 11.1523 93.0449 10.0801C93.0449 9.008 92.16 8.13961 91.0676 8.13961H44.3704L39.7978 3.65211C39.0242 2.89287 37.7735 2.89287 37.0023 3.65211L34.548 6.05839C34.2761 5.94196 34.0017 5.82794 33.7249 5.71879V2.31798C33.7249 1.24583 32.84 0.377441 31.7476 0.377441H19.8836C18.7911 0.377441 17.9062 1.24583 17.9062 2.31798V5.71879C17.6319 5.82794 17.3575 5.94196 17.0831 6.05839L14.6288 3.65211C13.8576 2.89287 12.607 2.89287 11.8334 3.65211L3.44698 11.8824C2.67335 12.6417 2.67335 13.8691 3.44698 14.6259L5.89888 17.0346C5.78024 17.3038 5.66407 17.5731 5.55284 17.8423H2.08756C0.995086 17.8423 0.110229 18.7107 0.110229 19.7829V23.6639C0.110229 24.7361 0.995086 25.6045 2.08756 25.6045C3.18004 25.6045 4.0649 24.7361 4.0649 23.6639V21.7234H6.94934C7.81442 21.7234 8.57817 21.1728 8.83522 20.365C9.1516 19.3899 9.55695 18.4439 10.0414 17.5367C10.4443 16.7847 10.3009 15.8654 9.68794 15.2662L7.63892 13.2554L13.2323 7.76604L15.2813 9.77694C15.8918 10.3785 16.8286 10.5192 17.5948 10.1238C18.5192 9.64839 19.4831 9.25058 20.4767 8.94009C21.2998 8.68782 21.8609 7.93829 21.8609 7.0893V4.25852H29.7702V7.0893C29.7702 7.93829 30.3313 8.68782 31.1544 8.94009C32.148 9.25058 33.1119 9.64839 34.0363 10.1238C34.8025 10.5192 35.7393 10.3785 36.3498 9.77694L38.3988 7.76604L43.9922 13.2554L41.9432 15.2662C41.3302 15.8654 41.1869 16.7847 41.5898 17.5367C42.0742 18.4439 42.4795 19.3899 42.7959 20.365C43.053 21.1728 43.8167 21.7234 44.6818 21.7234H47.5662V29.4856H44.6818C43.8167 29.4856 43.053 30.0362 42.7959 30.8439C42.4795 31.8191 42.0742 32.7651 41.5898 33.6723C41.1869 34.4242 41.3302 35.3436 41.9432 35.9427L43.9922 37.9536L38.3988 43.4429L36.3498 41.432C35.7393 40.8305 34.8025 40.6898 34.0363 41.0851C33.1119 41.5606 32.148 41.9584 31.1544 42.2689C30.3313 42.5211 29.7702 43.2707 29.7702 44.1197V46.9504H21.8609V44.1197C21.8609 43.2707 21.2998 42.5211 20.4767 42.2689C19.4831 41.9584 18.5192 41.5606 17.5948 41.0851C16.8286 40.6898 15.8918 40.8305 15.2813 41.432L13.2323 43.4429L7.63892 37.9536L9.68794 35.9427C10.3009 35.3436 10.4443 34.4242 10.0414 33.6723Z" fill="url(#paint1_linear_71_144)"/>
<path d="M34.2835 30.9409C35.2969 31.3363 36.4462 30.8463 36.849 29.8517C36.849 29.8469 36.8515 29.8445 36.854 29.8396C39.2738 23.8263 36.2682 17.0248 30.141 14.6476C24.0112 12.2729 17.0807 15.2225 14.6585 21.2357C12.2387 27.2514 15.2442 34.053 21.3715 36.4277C24.1892 37.5217 27.3233 37.5217 30.141 36.4277C31.1642 36.0566 31.6882 34.9408 31.3101 33.9366C30.9319 32.9299 29.7949 32.4157 28.7692 32.7868C28.7469 32.7965 28.7222 32.8062 28.6975 32.8159C24.6044 34.4096 19.9701 32.4448 18.3462 28.4254C16.7223 24.4085 18.7244 19.8604 22.8175 18.2667C26.913 16.673 31.5474 18.6378 33.1712 22.6547C33.9202 24.508 33.9202 26.5722 33.1712 28.4254C32.7708 29.4224 33.2701 30.5455 34.2835 30.9409ZM59.4302 31.426C58.3377 31.426 57.4529 32.2944 57.4529 33.3665C57.4529 34.4387 58.3377 35.3071 59.4302 35.3071H67.3395C68.432 35.3071 69.3169 34.4387 69.3169 33.3665C69.3169 32.2944 68.432 31.426 67.3395 31.426H65.3622V17.8422C65.3622 16.7701 64.4774 15.9017 63.3849 15.9017C62.8609 15.9017 62.3567 16.1054 61.9859 16.4693L58.0313 20.3504C57.2725 21.1217 57.2947 22.3516 58.0807 23.0962C58.8469 23.8215 60.0629 23.8215 60.8292 23.0962L61.4075 22.5262V31.426H59.4302ZM106.886 15.9017H83.1582C82.0657 15.9017 81.1809 16.7701 81.1809 17.8422C81.1809 18.9144 82.0657 19.7828 83.1582 19.7828H106.886C107.979 19.7828 108.864 18.9144 108.864 17.8422C108.864 16.7701 107.979 15.9017 106.886 15.9017ZM106.886 23.6638H73.2715C72.1791 23.6638 71.2942 24.5322 71.2942 25.6044C71.2942 26.6765 72.1791 27.5449 73.2715 27.5449H106.886C107.979 27.5449 108.864 26.6765 108.864 25.6044C108.864 24.5322 107.979 23.6638 106.886 23.6638ZM106.886 31.426H77.2262C76.1337 31.426 75.2489 32.2944 75.2489 33.3665C75.2489 34.4387 76.1337 35.3071 77.2262 35.3071H106.886C107.979 35.3071 108.864 34.4387 108.864 33.3665C108.864 32.2944 107.979 31.426 106.886 31.426ZM102.353 61.1017C101.58 60.3449 100.329 60.3449 99.5553 61.1017L95.6006 64.9828C94.8294 65.742 94.8294 66.9695 95.6006 67.7287L99.5553 71.6098C100.341 72.3545 101.594 72.3326 102.353 71.5612C103.092 70.8093 103.092 69.6158 102.353 68.8639L101.772 68.2963H108.864C109.956 68.2963 110.841 67.4279 110.841 66.3557V48.8909C110.841 47.8187 109.956 46.9503 108.864 46.9503C107.771 46.9503 106.886 47.8187 106.886 48.8909V64.4152H101.772L102.353 63.8476C103.124 63.0884 103.124 61.861 102.353 61.1017ZM23.2598 96.0315C22.4738 95.2868 21.2208 95.3086 20.462 96.08C19.7229 96.832 19.7229 98.0254 20.462 98.7774L21.0428 99.3449H4.0649V72.1774H9.99689C11.0894 72.1774 11.9742 71.309 11.9742 70.2368C11.9742 69.1647 11.0894 68.2963 9.99689 68.2963H2.08756C0.995086 68.2963 0.110229 69.1647 0.110229 70.2368V101.285C0.110229 102.358 0.995086 103.226 2.08756 103.226H21.0428L20.462 103.794C19.6784 104.538 19.6561 105.768 20.4149 106.54C21.1737 107.308 22.4244 107.33 23.2104 106.586C23.2277 106.571 23.2425 106.554 23.2598 106.54L27.2145 102.658C27.9857 101.899 27.9857 100.672 27.2145 99.9126L23.2598 96.0315ZM37.6796 68.2963C37.6796 65.0798 35.025 62.4747 31.7476 62.4747C28.4701 62.4747 25.8156 65.0798 25.8156 68.2963C25.8156 69.3684 26.7004 70.2368 27.7929 70.2368C28.8854 70.2368 29.7702 69.3684 29.7702 68.2963C29.7702 67.2241 30.6576 66.3557 31.75 66.3582C32.6472 66.3582 33.4308 66.9525 33.6606 67.8039L26.1468 78.865C25.5412 79.7576 25.7884 80.9608 26.6955 81.555C27.0217 81.7661 27.4024 81.8801 27.7929 81.8801H35.7022C36.7947 81.8801 37.6796 81.0117 37.6796 79.9395C37.6796 78.8674 36.7947 77.999 35.7022 77.999H31.488L37.3483 69.3733C37.5634 69.0531 37.6796 68.6795 37.6796 68.2963ZM79.2035 64.4152H55.4755C54.3831 64.4152 53.4982 65.2836 53.4982 66.3557C53.4982 67.4279 54.3831 68.2963 55.4755 68.2963H79.2035C80.296 68.2963 81.1809 67.4279 81.1809 66.3557C81.1809 65.2836 80.296 64.4152 79.2035 64.4152ZM79.2035 72.1774H45.5889C44.4964 72.1774 43.6116 73.0458 43.6116 74.1179C43.6116 75.1901 44.4964 76.0585 45.5889 76.0585H79.2035C80.296 76.0585 81.1809 75.1901 81.1809 74.1179C81.1809 73.0458 80.296 72.1774 79.2035 72.1774ZM59.4302 89.6422C56.1528 89.6422 53.4982 92.2474 53.4982 95.4639C53.4982 96.536 54.3831 97.4044 55.4755 97.4044C56.568 97.4044 57.4529 96.536 57.4529 95.4639C57.4529 94.3917 58.3377 93.5233 59.4302 93.5233C60.5227 93.5233 61.4075 94.3917 61.4075 95.4639C61.4075 96.536 60.5227 97.4044 59.4302 97.4044C58.3377 97.4044 57.4529 98.2728 57.4529 99.3449C57.4529 100.417 58.3377 101.285 59.4302 101.285C60.5227 101.285 61.4075 102.154 61.4075 103.226C61.4075 104.298 60.5227 105.167 59.4302 105.167C58.3377 105.167 57.4529 104.298 57.4529 103.226C57.4529 102.154 56.568 101.285 55.4755 101.285C54.3831 101.285 53.4982 102.154 53.4982 103.226C53.4957 106.442 56.1503 109.05 59.4253 109.053C62.7027 109.055 65.3597 106.45 65.3622 103.236C65.3622 101.8 64.8234 100.415 63.8471 99.3449C66.0321 96.9484 65.8219 93.2686 63.3799 91.1243C62.2949 90.171 60.8885 89.6422 59.4302 89.6422ZM104.909 93.5233C106.001 93.5233 106.886 92.6549 106.886 91.5828C106.886 90.5106 106.001 89.6422 104.909 89.6422H81.1809C80.0884 89.6422 79.2035 90.5106 79.2035 91.5828C79.2035 92.6549 80.0884 93.5233 81.1809 93.5233H104.909ZM71.2942 99.3449C71.2942 100.417 72.1791 101.285 73.2715 101.285H104.909C106.001 101.285 106.886 100.417 106.886 99.3449C106.886 98.2728 106.001 97.4044 104.909 97.4044H73.2715C72.1791 97.4044 71.2942 98.2728 71.2942 99.3449ZM73.2715 109.048H104.909C106.001 109.048 106.886 108.179 106.886 107.107C106.886 106.035 106.001 105.167 104.909 105.167H73.2715C72.1791 105.167 71.2942 106.035 71.2942 107.107C71.2942 108.179 72.1791 109.048 73.2715 109.048Z" fill="url(#paint2_linear_71_144)"/>
<defs>
<linearGradient id="paint0_linear_71_144" x1="67.3396" y1="8.13965" x2="67.3396" y2="89.6424" gradientUnits="userSpaceOnUse">
<stop stop-color="#A2A9E2"/>
<stop offset="1" stop-color="#C533FF"/>
</linearGradient>
<linearGradient id="paint1_linear_71_144" x1="58.4416" y1="0.377441" x2="58.4416" y2="116.81" gradientUnits="userSpaceOnUse">
<stop stop-color="#A2A9E2"/>
<stop offset="1" stop-color="#C533FF"/>
</linearGradient>
<linearGradient id="paint2_linear_71_144" x1="55.4755" y1="13.8262" x2="55.4755" y2="109.053" gradientUnits="userSpaceOnUse">
<stop stop-color="#A2A9E2"/>
<stop offset="1" stop-color="#C533FF"/>
</linearGradient>
</defs>
</svg>
