<svg width="80" height="84" viewBox="0 0 120 124" fill="none" xmlns="http://www.w3.org/2000/svg">
<path d="M5.04502 4.13691C3.01368 6.23418 2.03865 7.91237 2.36366 8.75115C3.01368 10.345 4.63874 10.513 6.02005 9.08654C6.75133 8.33145 6.99509 19.6578 6.99509 60.1811V112.367L3.90746 112.618C-0.236422 112.954 -0.236423 115.303 3.98871 115.639C6.75133 115.89 6.99509 116.058 6.99509 118.575C6.99509 122.015 8.13258 123.777 9.75766 123.106C10.6515 122.77 11.0577 121.512 11.0577 119.162V115.806H61.4344C89.1417 115.806 111.811 115.974 111.811 116.226C111.811 116.478 111.324 117.401 110.836 118.323C109.942 119.75 110.023 120.169 110.998 120.84C111.892 121.428 113.111 120.673 115.873 117.904L119.449 114.128L116.28 110.772C113.192 107.5 110.186 106.326 110.186 108.423C110.186 108.927 110.755 110.101 111.567 110.94C112.867 112.367 111.242 112.45 62.0029 112.45H11.0577V60.2654C11.0577 19.6578 11.3014 8.33145 12.0327 9.08654C13.414 10.513 15.0391 10.345 15.6891 8.75115C16.1766 7.40897 10.7327 0.864845 9.02638 0.864845C8.53887 0.864845 6.75133 2.37503 5.04502 4.13691Z" fill="url(#paint0_linear_70_88)"/>
<path d="M59.4031 11.3518C58.9966 11.5198 57.2091 11.8552 55.4215 12.1912C50.8714 12.9463 45.2649 18.7354 41.6898 26.2863C40.146 29.5584 37.7084 34.844 36.3271 37.9481C32.9957 45.1636 28.7706 48.184 22.6767 47.6806C19.2641 47.4289 18.7766 47.5962 18.7766 49.0227C18.7766 52.7982 27.3081 52.4628 33.077 48.4357C36.6521 45.9187 38.7647 42.6466 42.3398 33.6692C45.7525 25.1115 50.1401 18.9027 54.1215 16.6375C57.8591 14.6239 63.8718 14.7082 67.853 16.8055C71.5093 18.7354 76.7099 26.202 79.2285 33.2495C81.9909 40.7167 83.8599 43.9888 87.3536 47.2609C92.3915 51.9594 100.192 53.3016 102.954 49.8615C104.417 48.0159 103.28 47.4289 98.0789 47.4289C91.9039 47.4289 88.0849 44.5759 85.2414 37.8644C76.6282 17.5606 72.6471 12.7783 63.4653 11.5198C61.678 11.2681 59.8906 11.1844 59.4031 11.3518Z" fill="url(#paint1_linear_70_88)"/>
<path d="M64.6841 76.3739V105.823L72.6471 105.571L80.5284 105.319V76.3739V47.4289L72.6471 47.1772L64.6841 46.9255V76.3739ZM76.872 76.4578V102.467L72.6471 102.215L68.3405 101.963L68.0968 76.1222L67.9347 50.365H72.4034H76.872V76.4578Z" fill="url(#paint2_linear_70_88)"/>
<path d="M41.5273 53.0499C41.2835 53.637 41.2023 65.6348 41.2835 79.7298L41.5273 105.319H49.2463H56.9653V78.8909V52.4628L49.4088 52.2111C43.8024 52.0431 41.771 52.2948 41.5273 53.0499ZM53.309 79.3943V102.466L49.0838 102.215L44.7774 101.963L44.5337 79.0586L44.3711 56.2383H48.84H53.309V79.3943Z" fill="url(#paint3_linear_70_88)"/>
<path d="M88.8162 60.1812C88.4914 60.4329 88.2476 70.8366 88.2476 83.2536V105.823L96.2106 105.571L104.092 105.319L104.336 83.5892C104.498 68.3196 104.255 61.524 103.604 60.7689C102.629 59.5104 89.8729 59.007 88.8162 60.1812ZM100.436 83.0858V102.383H95.9668H91.4975V83.0858V63.789H95.9668H100.436V83.0858Z" fill="url(#paint4_linear_70_88)"/>
<path d="M17.9641 73.1857C17.7203 73.8569 17.639 81.3239 17.7203 89.7977L17.9641 105.319H25.683H33.4021V88.9588V72.5984L25.8456 72.3467C20.2391 72.1789 18.2078 72.4306 17.9641 73.1857ZM30.3957 89.1265L30.152 101.963L25.9268 102.215L21.6204 102.466V89.4622V76.3739H26.0893H30.6395L30.3957 89.1265Z" fill="url(#paint5_linear_70_88)"/>
<defs>
<linearGradient id="paint0_linear_70_88" x1="60.1292" y1="123.247" x2="60.1292" y2="0.864845" gradientUnits="userSpaceOnUse">
<stop stop-color="#A2A9E2"/>
<stop offset="1" stop-color="#C533FF"/>
</linearGradient>
<linearGradient id="paint1_linear_70_88" x1="61.1593" y1="51.7898" x2="61.1593" y2="11.2648" gradientUnits="userSpaceOnUse">
<stop stop-color="#A2A9E2"/>
<stop offset="1" stop-color="#C533FF"/>
</linearGradient>
<linearGradient id="paint2_linear_70_88" x1="72.6063" y1="105.823" x2="72.6063" y2="46.9255" gradientUnits="userSpaceOnUse">
<stop stop-color="#A2A9E2"/>
<stop offset="1" stop-color="#C533FF"/>
</linearGradient>
<linearGradient id="paint3_linear_70_88" x1="49.1092" y1="105.319" x2="49.1092" y2="52.1613" gradientUnits="userSpaceOnUse">
<stop stop-color="#A2A9E2"/>
<stop offset="1" stop-color="#C533FF"/>
</linearGradient>
<linearGradient id="paint4_linear_70_88" x1="96.3161" y1="105.823" x2="96.3161" y2="59.5181" gradientUnits="userSpaceOnUse">
<stop stop-color="#A2A9E2"/>
<stop offset="1" stop-color="#C533FF"/>
</linearGradient>
<linearGradient id="paint5_linear_70_88" x1="25.5459" y1="105.319" x2="25.5459" y2="72.297" gradientUnits="userSpaceOnUse">
<stop stop-color="#A2A9E2"/>
<stop offset="1" stop-color="#C533FF"/>
</linearGradient>
</defs>
</svg>
