<svg width="118" height="86" viewBox="0 0 158 126" fill="none" xmlns="http://www.w3.org/2000/svg">
<path d="M49.5786 48.6297C49.5786 48.6297 52.9903 55.5071 52.9903 62.3847C52.9903 72.8301 44.5892 81.2976 34.2257 81.2976C30.4495 81.2976 26.9337 80.1733 23.9902 78.2388" stroke="url(#paint0_linear_71_153)" stroke-width="2.5" stroke-miterlimit="10" stroke-linecap="round" stroke-linejoin="round"/>
<path d="M36.787 67.5433C37.5651 68.587 38.8038 69.2622 40.1988 69.2622C42.5541 69.2622 44.4634 67.3378 44.4634 64.9636C44.4634 62.5897 42.5541 60.6653 40.1988 60.6653" stroke="url(#paint1_linear_71_153)" stroke-width="2.5" stroke-miterlimit="10" stroke-linecap="round" stroke-linejoin="round"/>
<path d="M62.9047 26.8132H80.0859C83.2488 26.8132 85.813 29.1099 85.813 31.9429V119.15C85.813 121.983 83.2488 124.28 80.0859 124.28H7.5413C4.37803 124.28 1.8136 121.983 1.8136 119.15V31.9429C1.8136 29.1099 4.37803 26.8132 7.5413 26.8132H24.722" stroke="url(#paint2_linear_71_153)" stroke-width="2.5" stroke-miterlimit="10" stroke-linecap="round" stroke-linejoin="round"/>
<path d="M9.68848 101.696V32.756H24.1259" stroke="url(#paint3_linear_71_153)" stroke-width="2.5" stroke-miterlimit="10" stroke-linecap="round" stroke-linejoin="round"/>
<path d="M70.3546 32.7561H77.938V113.582H9.68848V108.422" stroke="url(#paint4_linear_71_153)" stroke-width="2.5" stroke-miterlimit="10" stroke-linecap="round" stroke-linejoin="round"/>
<path d="M61.5318 24.4357H54.7797C53.1393 24.4357 51.7826 23.4319 51.2302 22.0331C50.1413 19.2765 47.2317 17.304 43.8132 17.304C40.3947 17.304 37.4851 19.2765 36.3961 22.0331C35.8438 23.4319 34.4871 24.4357 32.8467 24.4357H26.0945C25.0073 24.4357 24.1259 25.2339 24.1259 26.2186V33.3504C24.1259 34.3351 25.0073 35.1333 26.0945 35.1333H61.5318C62.6191 35.1333 63.5006 34.3351 63.5006 33.3504V26.2186C63.5006 25.2339 62.6191 24.4357 61.5318 24.4357Z" stroke="url(#paint5_linear_71_153)" stroke-width="2.5" stroke-miterlimit="10" stroke-linecap="round" stroke-linejoin="round"/>
<path d="M43.8132 24.436V26.8132" stroke="url(#paint6_linear_71_153)" stroke-width="2.5" stroke-miterlimit="10" stroke-linecap="round" stroke-linejoin="round"/>
<path d="M55.6819 45.5502C56.1052 46.4032 59.8142 54.1186 59.8142 62.3813C59.8142 76.6021 48.3354 88.1716 34.2259 88.1716C29.2484 88.1716 24.4205 86.7277 20.2642 83.9969" stroke="url(#paint7_linear_71_153)" stroke-width="2.5" stroke-miterlimit="10" stroke-linecap="round" stroke-linejoin="round" stroke-dasharray="7.04 17.59"/>
<path d="M20.5811 46.9072H35.934" stroke="url(#paint8_linear_71_153)" stroke-width="2.5" stroke-miterlimit="10" stroke-linecap="round" stroke-linejoin="round"/>
<path d="M22.8134 98.1301H64.813" stroke="url(#paint9_linear_71_153)" stroke-width="2.5" stroke-miterlimit="10" stroke-linecap="round" stroke-linejoin="round"/>
<path d="M22.8134 105.262H64.813" stroke="url(#paint10_linear_71_153)" stroke-width="2.5" stroke-miterlimit="10" stroke-linecap="round" stroke-linejoin="round"/>
<path d="M20.5811 53.7839H30.8164" stroke="url(#paint11_linear_71_153)" stroke-width="2.5" stroke-miterlimit="10" stroke-linecap="round" stroke-linejoin="round"/>
<path d="M123.434 0.97493C123.127 1.27506 123.024 1.5747 122.295 4.58528C121.851 6.39633 121.44 8.05756 121.383 8.27641C121.281 8.64558 121.201 8.70335 120.392 9.01474C119.902 9.18806 119.139 9.51022 118.694 9.7183L117.886 10.0875L114.707 8.1496C111.881 6.41934 111.471 6.21125 111.015 6.20049H110.514L107.46 9.29136L104.407 12.3828V12.8904C104.418 13.3517 104.623 13.767 106.332 16.6276L108.246 19.8458L107.825 20.7801C107.597 21.2992 107.278 22.0721 107.13 22.4988C106.879 23.214 106.822 23.2832 106.458 23.387C106.241 23.4447 104.6 23.86 102.812 24.3098C99.8379 25.048 99.5417 25.1519 99.2568 25.4633L98.9378 25.8093V30.1926V34.5758L99.2454 34.9219C99.5417 35.2332 99.8379 35.3371 102.812 36.0753C104.6 36.5252 106.241 36.9404 106.458 36.9981C106.822 37.1019 106.879 37.1711 107.13 37.8863C107.278 38.3131 107.597 39.0859 107.825 39.605L108.246 40.5393L106.332 43.7575C104.623 46.6181 104.418 47.0334 104.407 47.4948V48.0023L107.46 51.0937L110.514 54.1849H111.015C111.471 54.1734 111.881 53.9658 114.707 52.2356L117.874 50.3093L119.276 50.9091C120.05 51.2436 120.814 51.5551 120.973 51.6012C121.19 51.6473 121.292 51.7857 121.372 52.0972C121.44 52.3279 121.851 53.9889 122.295 55.7998C123.024 58.8104 123.127 59.1103 123.434 59.3987L123.776 59.7217H128.106H132.435L132.777 59.4102C133.085 59.1103 133.187 58.8104 133.916 55.7998C134.361 53.9889 134.771 52.3279 134.828 52.1087C134.931 51.7396 134.999 51.6819 135.705 51.4282C136.127 51.2782 136.89 50.9552 137.403 50.7245L138.326 50.2978L141.505 52.2356C144.33 53.9658 144.741 54.1734 145.196 54.1849H145.698L148.751 51.0937L151.804 48.0023V47.4948C151.794 47.0334 151.588 46.6181 149.879 43.7575L147.965 40.5393L148.329 39.7203C148.535 39.2704 148.853 38.4976 149.024 38.0016C149.332 37.1827 149.389 37.1019 149.754 36.9981C149.97 36.9404 151.611 36.5252 153.4 36.0753C156.373 35.3371 156.669 35.2332 156.954 34.9219L157.273 34.5758V30.1926V25.8093L156.966 25.4633C156.669 25.1519 156.373 25.048 153.4 24.3098C151.611 23.86 149.97 23.4447 149.754 23.387C149.389 23.2832 149.332 23.214 149.081 22.4988C148.934 22.0721 148.614 21.2992 148.386 20.7801L147.965 19.8458L149.879 16.6276C151.588 13.767 151.794 13.3517 151.804 12.8904V12.3828L148.751 9.29136L145.698 6.20049H145.196C144.741 6.21125 144.33 6.41934 141.505 8.1496L138.326 10.0875L137.403 9.66101C136.89 9.42992 136.127 9.10678 135.705 8.95696C134.999 8.70335 134.931 8.64558 134.828 8.27641C134.771 8.05756 134.361 6.39633 133.916 4.58528C133.187 1.5747 133.085 1.27506 132.777 0.97493L132.435 0.66354H128.106H123.776L123.434 0.97493ZM131.911 6.05067C132.333 7.75743 132.743 9.37215 132.811 9.63752C132.994 10.3528 133.301 10.5952 134.441 10.9756C134.999 11.1486 136.036 11.5869 136.754 11.9214C137.471 12.2674 138.201 12.5443 138.383 12.5443C138.622 12.5443 139.682 11.956 141.835 10.6525L144.934 8.76063L147.11 10.9525L149.275 13.1556L147.407 16.2931C146.119 18.4732 145.538 19.5459 145.538 19.7882C145.538 19.9727 145.812 20.7109 146.153 21.4376C146.484 22.1644 146.917 23.214 147.088 23.7792C147.27 24.3329 147.532 24.9096 147.657 25.048C147.851 25.2326 148.683 25.4863 151.075 26.0861C152.83 26.5245 154.425 26.9282 154.63 26.9859L154.995 27.0897V30.1926V33.2954L154.63 33.3992C154.425 33.4569 152.83 33.8606 151.087 34.2874C148.66 34.8987 147.851 35.141 147.669 35.3371C147.532 35.4755 147.27 36.0523 147.088 36.6059C146.917 37.1711 146.484 38.2208 146.153 38.9475C145.812 39.6742 145.538 40.4124 145.538 40.597C145.538 40.8392 146.119 41.9119 147.407 44.092L149.275 47.2295L147.11 49.4326L144.934 51.6242L141.835 49.7326C139.682 48.4291 138.622 47.8408 138.383 47.8408C138.201 47.8408 137.471 48.1176 136.754 48.4637C136.036 48.7982 134.999 49.2365 134.441 49.4096C133.301 49.7902 132.994 50.0324 132.811 50.7476C132.743 51.0129 132.333 52.6277 131.911 54.3233L131.148 57.4147H128.106H125.064L124.163 53.8274C123.491 51.1283 123.206 50.1824 123.024 49.9978C122.899 49.871 122.227 49.571 121.554 49.3288C120.871 49.0866 119.834 48.6483 119.241 48.3599C118.649 48.0715 118.022 47.8408 117.829 47.8408C117.589 47.8408 116.564 48.406 114.376 49.7326L111.277 51.6242L109.101 49.4326L106.936 47.2295L108.805 44.092C110.092 41.9119 110.673 40.8392 110.673 40.597C110.673 40.4124 110.4 39.6742 110.058 38.9475C109.728 38.2208 109.295 37.1711 109.124 36.6059C108.941 36.0523 108.679 35.4755 108.543 35.3371C108.349 35.141 107.483 34.8757 104.76 34.1721L101.217 33.2724V30.1926V27.1127L104.76 26.213C107.483 25.5094 108.349 25.2441 108.543 25.048C108.679 24.9096 108.941 24.3329 109.124 23.7792C109.295 23.214 109.728 22.1644 110.058 21.4376C110.4 20.7109 110.673 19.9727 110.673 19.7882C110.673 19.5459 110.092 18.4732 108.805 16.2931L106.936 13.1556L109.101 10.9525L111.277 8.76063L114.376 10.6525C116.564 11.9791 117.589 12.5443 117.829 12.5443C118.022 12.5443 118.649 12.3136 119.241 12.0252C119.834 11.7368 120.871 11.2985 121.554 11.0563C122.227 10.8141 122.899 10.5139 123.024 10.3871C123.206 10.2025 123.491 9.2566 124.163 6.55741L125.064 2.97056H128.106H131.148L131.911 6.05067Z" fill="url(#paint12_linear_71_153)"/>
<path d="M126.112 14.6321C124.277 14.8743 122.101 15.6126 120.449 16.5699C113.419 20.6418 110.673 29.3967 114.091 36.8481C115.527 39.9741 118.113 42.6617 121.224 44.242C122.204 44.738 124.061 45.3724 125.234 45.6146C126.625 45.8915 129.632 45.8915 130.943 45.6146C132.948 45.1763 135.261 44.2766 135.648 43.769C135.967 43.3538 135.91 42.6386 135.534 42.2695C135.124 41.8658 134.555 41.8658 133.803 42.2465C132.333 42.9962 129.906 43.573 128.163 43.573C124.539 43.573 121.064 42.0503 118.524 39.3397C117.464 38.2208 116.849 37.3211 116.199 35.9254C114.456 32.2573 114.456 28.1278 116.199 24.4598C116.849 23.064 117.464 22.1644 118.524 21.0455C122.534 16.7775 128.584 15.6241 133.768 18.1387C135.17 18.8077 136.047 19.4306 137.198 20.5495C138.406 21.7145 139.123 22.6834 139.83 24.0791C141.448 27.2627 141.744 30.8501 140.684 34.2528C140.229 35.6832 140.308 36.1791 141.06 36.4906C141.539 36.6982 142.12 36.5483 142.382 36.1561C142.621 35.7754 143.214 33.8606 143.385 32.8456C143.613 31.5883 143.578 28.5431 143.339 27.2858C142.325 22.1182 138.918 17.8503 134.156 15.7625C131.717 14.7013 128.801 14.2976 126.112 14.6321Z" fill="url(#paint13_linear_71_153)"/>
<path d="M138.257 38.8897C137.266 39.4434 137.688 41.0352 138.816 41.0352C139.397 41.0352 139.955 40.47 139.955 39.8933C139.955 39.0281 139.009 38.4629 138.257 38.8897Z" fill="url(#paint14_linear_71_153)"/>
<defs>
<linearGradient id="paint0_linear_71_153" x1="38.4903" y1="81.2976" x2="38.4903" y2="48.6297" gradientUnits="userSpaceOnUse">
<stop stop-color="#A2A9E2"/>
<stop offset="1" stop-color="#C533FF"/>
</linearGradient>
<linearGradient id="paint1_linear_71_153" x1="40.6252" y1="69.2622" x2="40.6252" y2="60.6653" gradientUnits="userSpaceOnUse">
<stop stop-color="#A2A9E2"/>
<stop offset="1" stop-color="#C533FF"/>
</linearGradient>
<linearGradient id="paint2_linear_71_153" x1="43.8133" y1="124.28" x2="43.8133" y2="26.8132" gradientUnits="userSpaceOnUse">
<stop stop-color="#A2A9E2"/>
<stop offset="1" stop-color="#C533FF"/>
</linearGradient>
<linearGradient id="paint3_linear_71_153" x1="16.9072" y1="101.696" x2="16.9072" y2="32.756" gradientUnits="userSpaceOnUse">
<stop stop-color="#A2A9E2"/>
<stop offset="1" stop-color="#C533FF"/>
</linearGradient>
<linearGradient id="paint4_linear_71_153" x1="43.8132" y1="113.582" x2="43.8132" y2="32.7561" gradientUnits="userSpaceOnUse">
<stop stop-color="#A2A9E2"/>
<stop offset="1" stop-color="#C533FF"/>
</linearGradient>
<linearGradient id="paint5_linear_71_153" x1="43.8132" y1="35.1333" x2="43.8132" y2="17.304" gradientUnits="userSpaceOnUse">
<stop stop-color="#A2A9E2"/>
<stop offset="1" stop-color="#C533FF"/>
</linearGradient>
<linearGradient id="paint6_linear_71_153" x1="44.3132" y1="26.8132" x2="44.3132" y2="24.436" gradientUnits="userSpaceOnUse">
<stop stop-color="#A2A9E2"/>
<stop offset="1" stop-color="#C533FF"/>
</linearGradient>
<linearGradient id="paint7_linear_71_153" x1="40.0392" y1="88.1716" x2="40.0392" y2="45.5502" gradientUnits="userSpaceOnUse">
<stop stop-color="#A2A9E2"/>
<stop offset="1" stop-color="#C533FF"/>
</linearGradient>
<linearGradient id="paint8_linear_71_153" x1="28.2575" y1="46.9072" x2="28.2575" y2="45.9072" gradientUnits="userSpaceOnUse">
<stop stop-color="#A2A9E2"/>
<stop offset="1" stop-color="#C533FF"/>
</linearGradient>
<linearGradient id="paint9_linear_71_153" x1="43.8132" y1="98.1301" x2="43.8132" y2="97.1301" gradientUnits="userSpaceOnUse">
<stop stop-color="#A2A9E2"/>
<stop offset="1" stop-color="#C533FF"/>
</linearGradient>
<linearGradient id="paint10_linear_71_153" x1="43.8132" y1="105.262" x2="43.8132" y2="104.262" gradientUnits="userSpaceOnUse">
<stop stop-color="#A2A9E2"/>
<stop offset="1" stop-color="#C533FF"/>
</linearGradient>
<linearGradient id="paint11_linear_71_153" x1="25.6987" y1="53.7839" x2="25.6987" y2="52.7839" gradientUnits="userSpaceOnUse">
<stop stop-color="#A2A9E2"/>
<stop offset="1" stop-color="#C533FF"/>
</linearGradient>
<linearGradient id="paint12_linear_71_153" x1="128.106" y1="59.7217" x2="128.106" y2="0.66354" gradientUnits="userSpaceOnUse">
<stop stop-color="#A2A9E2"/>
<stop offset="1" stop-color="#C533FF"/>
</linearGradient>
<linearGradient id="paint13_linear_71_153" x1="128.083" y1="45.8223" x2="128.083" y2="14.5175" gradientUnits="userSpaceOnUse">
<stop stop-color="#A2A9E2"/>
<stop offset="1" stop-color="#C533FF"/>
</linearGradient>
<linearGradient id="paint14_linear_71_153" x1="138.828" y1="41.0352" x2="138.828" y2="38.7442" gradientUnits="userSpaceOnUse">
<stop stop-color="#A2A9E2"/>
<stop offset="1" stop-color="#C533FF"/>
</linearGradient>
</defs>
</svg>
