<svg width="54" height="69" viewBox="0 0 94 119" fill="none" xmlns="http://www.w3.org/2000/svg">
<path d="M38.7915 2.79575C37.4164 3.8971 35.9556 5.54884 35.6977 6.33552C35.354 7.43687 34.4087 7.90888 32.604 7.90888C29.6822 7.90888 26.5885 9.16757 25.5573 10.7403C25.0417 11.527 22.6355 11.8417 16.534 11.8417C6.9092 11.8417 4.50297 12.7067 2.44052 16.5612C0.979624 19.0786 0.893677 23.0897 0.893677 65.5656C0.893677 114.885 0.979623 115.986 5.01858 117.952C7.51076 119.132 87.0876 119.132 89.5798 117.952C93.6189 115.986 93.7045 114.885 93.7045 65.5656C93.7045 23.0897 93.6189 19.0786 92.1575 16.5612C90.0954 12.7067 87.6889 11.8417 78.0642 11.8417C71.963 11.8417 69.5565 11.527 69.0409 10.7403C68.0095 9.16757 64.9161 7.90888 61.9939 7.90888C60.1894 7.90888 59.2443 7.43687 58.9005 6.33552C58.6423 5.54884 57.1816 3.8971 55.8071 2.79575C53.5725 1.14401 52.3692 0.829346 47.2994 0.829346C42.2289 0.829346 41.0257 1.14401 38.7915 2.79575ZM53.6581 6.25714L55.377 7.90888H47.385C40.0805 7.90888 39.4789 7.82992 40.5101 6.65019C43.2601 3.58244 50.4784 3.34673 53.6581 6.25714ZM65.7756 13.8081C65.7756 15.3025 65.088 15.3815 47.8144 15.6172C37.1587 15.6961 29.4244 15.4598 28.9947 15.0668C28.5651 14.6737 28.3932 13.7297 28.651 13.0214C29.1666 11.999 31.4869 11.8417 47.4713 11.999C65.088 12.2353 65.7756 12.3137 65.7756 13.8081ZM26.1588 17.7409L28.3072 19.7079H47.2994H66.2912L68.4396 17.7409C70.416 15.9318 71.1892 15.7745 78.6655 15.7745C86.0563 15.7745 86.8295 15.9318 88.0327 17.5052C89.236 19.0786 89.4079 24.9778 89.4079 65.8802C89.4079 111.502 89.4079 112.525 87.6889 114.098C86.0563 115.592 84.853 115.671 47.2994 115.671C9.74504 115.671 8.54199 115.592 6.9092 114.098C5.19047 112.525 5.19047 111.502 5.19047 65.8802C5.19047 24.9778 5.36237 19.0786 6.56542 17.5052C7.76854 15.9318 8.54199 15.7745 15.9325 15.7745C23.4089 15.7745 24.1823 15.9318 26.1588 17.7409Z" fill="url(#paint0_linear_73_174)"/>
<path d="M10.0889 24.1911C9.74508 24.4274 9.4873 43.8557 9.4873 67.2961C9.4873 99.3101 9.74508 110.086 10.5185 110.794C12.1513 112.289 82.791 112.131 84.1655 110.637C84.8531 109.929 85.025 97.7369 84.9393 66.8241L84.6812 24.0337L47.6432 23.798C27.276 23.7191 10.3466 23.8764 10.0889 24.1911ZM80.8139 67.6893V107.805H74.3689H67.9239V104.187C67.9239 101.277 68.3533 100.254 69.986 99.0742C73.3376 96.7144 75.1421 91.4443 74.0251 87.59C73.5095 85.7809 72.4781 83.9717 71.7912 83.4211C71.1036 82.8705 70.5017 81.6119 70.5017 80.5894C70.5017 79.0948 70.0723 78.7016 68.3533 78.7016C66.5488 78.7016 66.205 79.0948 66.205 81.2186C66.205 82.7132 66.9782 84.4436 68.0958 85.5449C70.9317 88.2979 70.7598 93.0174 67.6658 95.7705C63.2835 99.8607 55.2914 97.8943 53.83 92.3881C53.4006 91.051 52.713 90.5004 51.0804 90.5004C49.1896 90.5004 49.0177 90.7364 49.4477 92.2309C51.2523 97.7369 55.7208 101.434 60.9632 101.749C63.4554 101.906 63.6273 102.142 63.6273 104.816V107.805H47.2994H30.9713V104.816C30.9713 102.142 31.1432 101.906 33.6353 101.749C38.8774 101.434 43.3461 97.7369 45.1504 92.2309C45.5805 90.7364 45.4086 90.5004 43.518 90.5004C41.8852 90.5004 41.1977 91.051 40.768 92.3881C39.3071 97.8943 31.315 99.8607 26.9323 95.7705C23.8386 93.0174 23.6668 88.2979 26.5026 85.5449C27.6198 84.4436 28.3932 82.7132 28.3932 81.2186C28.3932 79.0948 28.0494 78.7016 26.2448 78.7016C24.5261 78.7016 24.0964 79.0948 24.0964 80.5894C24.0964 81.6119 23.4949 82.8705 22.8074 83.4211C22.1199 83.9717 21.0886 85.7809 20.573 87.59C19.4558 91.4443 21.2605 96.7144 24.612 99.0742C26.2448 100.254 26.6745 101.277 26.6745 104.187V107.805H20.2293H13.7841V67.6893V27.5735H47.2994H80.8139V67.6893Z" fill="url(#paint1_linear_73_174)"/>
<path d="M35.0103 31.2706C34.6665 31.5063 34.4087 32.4504 34.4087 33.237C34.4087 34.5741 35.6118 34.6531 55.4633 34.6531H76.5172V32.6861V30.7197H56.0646C44.8069 30.7197 35.268 30.956 35.0103 31.2706Z" fill="url(#paint2_linear_73_174)"/>
<path d="M18.0808 40.5521V42.5186H47.2993H76.5172V40.5521V38.5857H47.2993H18.0808V40.5521Z" fill="url(#paint3_linear_73_174)"/>
<path d="M41.2836 48.4179V50.3843H58.9005H76.5172V48.4179V46.4515H58.9005H41.2836V48.4179Z" fill="url(#paint4_linear_73_174)"/>
<path d="M27.3619 50.1485C24.612 52.5869 24.0104 52.9015 22.8073 51.9575C21.6042 51.0925 21.1745 51.0925 19.9714 52.2722C18.5964 53.5309 18.6824 53.7666 21.4323 56.0477L24.3541 58.4077L29.0807 54.0813C33.2056 50.3058 33.7212 49.5191 32.7759 48.4967C31.2291 46.766 30.9712 46.845 27.3619 50.1485Z" fill="url(#paint5_linear_73_174)"/>
<path d="M47.2993 56.2841V58.2505H61.9082H76.5172V56.2841V54.3177H61.9082H47.2993V56.2841Z" fill="url(#paint6_linear_73_174)"/>
<path d="M27.3619 61.9472C24.6979 64.3856 24.0104 64.7002 22.8932 63.835C21.7761 62.9698 21.2605 62.9698 20.2292 63.7563C19.0261 64.7002 19.1121 65.0149 21.1745 67.06C22.4636 68.2399 24.0104 69.2625 24.526 69.2625C25.0416 69.2625 27.3619 67.532 29.6822 65.3295C33.2056 62.0259 33.6352 61.3182 32.69 60.2168C31.2291 58.5651 30.9712 58.6434 27.3619 61.9472Z" fill="url(#paint7_linear_73_174)"/>
<path d="M41.2836 63.3631V65.3296H58.9005H76.5172V63.3631V61.3966H58.9005H41.2836V63.3631Z" fill="url(#paint8_linear_73_174)"/>
<path d="M36.9868 71.2291V73.1956H56.7522H76.5173V71.2291V69.2626H56.7522H36.9868V71.2291Z" fill="url(#paint9_linear_73_174)"/>
<path d="M28.3933 92.4669C28.3933 94.0401 28.823 94.4333 30.5417 94.4333C32.2604 94.4333 32.6901 94.0401 32.6901 92.4669C32.6901 90.8937 32.2604 90.5004 30.5417 90.5004C28.823 90.5004 28.3933 90.8937 28.3933 92.4669Z" fill="url(#paint10_linear_73_174)"/>
<path d="M61.9082 92.4669C61.9082 94.0401 62.3376 94.4333 64.0565 94.4333C65.7755 94.4333 66.2049 94.0401 66.2049 92.4669C66.2049 90.8937 65.7755 90.5004 64.0565 90.5004C62.3376 90.5004 61.9082 90.8937 61.9082 92.4669Z" fill="url(#paint11_linear_73_174)"/>
<defs>
<linearGradient id="paint0_linear_73_174" x1="47.2991" y1="118.837" x2="47.2991" y2="0.829346" gradientUnits="userSpaceOnUse">
<stop stop-color="#A2A9E2"/>
<stop offset="1" stop-color="#C533FF"/>
</linearGradient>
<linearGradient id="paint1_linear_73_174" x1="47.2235" y1="111.84" x2="47.2235" y2="23.7778" gradientUnits="userSpaceOnUse">
<stop stop-color="#A2A9E2"/>
<stop offset="1" stop-color="#C533FF"/>
</linearGradient>
<linearGradient id="paint2_linear_73_174" x1="55.4629" y1="34.6531" x2="55.4629" y2="30.7197" gradientUnits="userSpaceOnUse">
<stop stop-color="#A2A9E2"/>
<stop offset="1" stop-color="#C533FF"/>
</linearGradient>
<linearGradient id="paint3_linear_73_174" x1="47.299" y1="42.5186" x2="47.299" y2="38.5857" gradientUnits="userSpaceOnUse">
<stop stop-color="#A2A9E2"/>
<stop offset="1" stop-color="#C533FF"/>
</linearGradient>
<linearGradient id="paint4_linear_73_174" x1="58.9004" y1="50.3843" x2="58.9004" y2="46.4515" gradientUnits="userSpaceOnUse">
<stop stop-color="#A2A9E2"/>
<stop offset="1" stop-color="#C533FF"/>
</linearGradient>
<linearGradient id="paint5_linear_73_174" x1="26.1397" y1="58.4077" x2="26.1397" y2="47.3781" gradientUnits="userSpaceOnUse">
<stop stop-color="#A2A9E2"/>
<stop offset="1" stop-color="#C533FF"/>
</linearGradient>
<linearGradient id="paint6_linear_73_174" x1="61.9082" y1="58.2505" x2="61.9082" y2="54.3177" gradientUnits="userSpaceOnUse">
<stop stop-color="#A2A9E2"/>
<stop offset="1" stop-color="#C533FF"/>
</linearGradient>
<linearGradient id="paint7_linear_73_174" x1="26.285" y1="69.2625" x2="26.285" y2="59.1606" gradientUnits="userSpaceOnUse">
<stop stop-color="#A2A9E2"/>
<stop offset="1" stop-color="#C533FF"/>
</linearGradient>
<linearGradient id="paint8_linear_73_174" x1="58.9004" y1="65.3296" x2="58.9004" y2="61.3966" gradientUnits="userSpaceOnUse">
<stop stop-color="#A2A9E2"/>
<stop offset="1" stop-color="#C533FF"/>
</linearGradient>
<linearGradient id="paint9_linear_73_174" x1="56.752" y1="73.1956" x2="56.752" y2="69.2626" gradientUnits="userSpaceOnUse">
<stop stop-color="#A2A9E2"/>
<stop offset="1" stop-color="#C533FF"/>
</linearGradient>
<linearGradient id="paint10_linear_73_174" x1="30.5417" y1="94.4333" x2="30.5417" y2="90.5004" gradientUnits="userSpaceOnUse">
<stop stop-color="#A2A9E2"/>
<stop offset="1" stop-color="#C533FF"/>
</linearGradient>
<linearGradient id="paint11_linear_73_174" x1="64.0565" y1="94.4333" x2="64.0565" y2="90.5004" gradientUnits="userSpaceOnUse">
<stop stop-color="#A2A9E2"/>
<stop offset="1" stop-color="#C533FF"/>
</linearGradient>
</defs>
</svg>
